# xmcd
#
# Track frame offsets:
# 150
# 17783
# 41187
# 66326
# 83825
# 97368
# 112447
# 125630
# 139651
# 157088
# 191318
# 205908
# 212411
#
# Disc length: 2971 seconds
#
# Revision: 0
# Processed by: cddbd v1.5.1PL0 Copyright (c) Steve Scherf et al.
# Submitted via: Audion 3.0.2 (http://www.panic.com/audion/)
#
DISCID=c90b990d
DTITLE=Alain Barrière - Concerts Musicorama Extraits Inédits
DYEAR=1900
DGENRE=
TTITLE0=Rêve et réalité
TTITLE1=Tu t'en vas
TTITLE2=Dessus ma porte
TTITLE3=Tout s'en va déjà
TTITLE4=Et tu trouveras ta vie
TTITLE5=Le temps d'une valse
TTITLE6=Ecoute bien c'est un tango
TTITLE7=Toi tu me lâches
TTITLE8=L'algue
TTITLE9=Je ne suis qu'un homme
TTITLE10=Medley (Cathy-Les matins bleus-Plus je t'entends)
TTITLE11=Elle était si jolie
TTITLE12=Ma vie
EXTD=
EXTT0=
EXTT1=
EXTT2=
EXTT3=
EXTT4=
EXTT5=
EXTT6=
EXTT7=
EXTT8=
EXTT9=
EXTT10=
EXTT11=
EXTT12=
PLAYORDER=
